<?xml version="1.0" encoding="UTF-8" standalone="no"?>
<!DOCTYPE svg PUBLIC "-//W3C//DTD SVG 1.1//EN" "http://www.w3.org/Graphics/SVG/1.1/DTD/svg11.dtd">
<!-- Generated by graphviz version 2.40.1 (20161225.0304)
 -->
<!-- Title: G Pages: 1 -->
<svg width="475pt" height="332pt" viewBox="0.00 0.00 475.00 332.00" xmlns="http://www.w3.org/2000/svg" xmlns:xlink="http://www.w3.org/1999/xlink">
<g id="graph0" class="graph" transform="scale(1 1) rotate(0) translate(4 328)">
<title>G</title>
<polygon fill="#e0ffff" stroke="transparent" points="-4,4 -4,-328 471,-328 471,4 -4,4"/>
<g id="clust1" class="cluster">
<title>cluster_0</title>
<path fill="#87cefa" stroke="#87cefa" d="M280.4379,-58.0887C280.4379,-58.0887 455.4379,-58.0887 455.4379,-58.0887 461.4379,-58.0887 467.4379,-64.0887 467.4379,-70.0887 467.4379,-70.0887 467.4379,-271.0887 467.4379,-271.0887 467.4379,-277.0887 461.4379,-283.0887 455.4379,-283.0887 455.4379,-283.0887 280.4379,-283.0887 280.4379,-283.0887 274.4379,-283.0887 268.4379,-277.0887 268.4379,-271.0887 268.4379,-271.0887 268.4379,-70.0887 268.4379,-70.0887 268.4379,-64.0887 274.4379,-58.0887 280.4379,-58.0887"/>
<text text-anchor="middle" x="334.9388" y="-262.8887" font-family="Helvetica,sans-Serif" font-size="18.00" fill="#ffffff">WORKSPACE</text>
</g>
<!-- server&#45;&gt;capabilities_old -->
<g id="edge1" class="edge">
<title>server-&gt;capabilities_old</title>
<path fill="none" stroke="#ee82ee" stroke-width="2" d="M327.417,-172.0678C336.5515,-181.2023 348.2076,-192.8584 358.5195,-203.1703"/>
<polygon fill="#ee82ee" stroke="#ee82ee" stroke-width="2" points="356.1894,-205.79 365.7353,-210.3862 361.1391,-200.8402 356.1894,-205.79"/>
</g>
<!-- server&#45;&gt;capabilities_new -->
<g id="edge2" class="edge">
<title>server-&gt;capabilities_new</title>
<path fill="none" stroke="#000000" d="M327.417,-140.1096C336.5515,-130.9751 348.2076,-119.319 358.5195,-109.0071"/>
<polygon fill="#000000" stroke="#000000" points="361.1391,-111.3372 365.7353,-101.7912 356.1894,-106.3874 361.1391,-111.3372"/>
</g>
<!-- server&#45;&gt;futures01 -->
<g id="edge9" class="edge">
<title>server-&gt;futures01</title>
<path fill="none" stroke="#ee82ee" stroke-width="2" d="M285.4552,-169.4225C255.4509,-182.3067 206.4584,-203.3446 171.6588,-218.2879"/>
<path fill="none" stroke="#87ceeb" stroke-width="2" d="M284.6661,-167.5848C254.6618,-180.4689 205.6692,-201.5068 170.8697,-216.4501"/>
<path fill="none" stroke="#ee82ee" stroke-width="2" d="M283.8769,-165.747C253.8727,-178.6312 204.8801,-199.6691 170.0805,-214.6124"/>
<polygon fill="#ee82ee" stroke="#ee82ee" stroke-width="2" points="169.266,-213.3297 161.4584,-220.4914 172.0281,-219.7617 169.266,-213.3297"/>
</g>
<!-- server&#45;&gt;futures03 -->
<g id="edge5" class="edge">
<title>server-&gt;futures03</title>
<path fill="none" stroke="#000000" d="M282.6885,-145.6167C253.495,-134.983 207.9012,-118.3755 174.1297,-106.0742"/>
<polygon fill="#000000" stroke="#000000" points="175.0955,-102.7011 164.5015,-102.5672 172.6997,-109.2784 175.0955,-102.7011"/>
</g>
<!-- capabilities_old&#45;&gt;library_old -->
<g id="edge7" class="edge">
<title>capabilities_old-&gt;library_old</title>
<path fill="none" stroke="#ee82ee" stroke-width="2" d="M331.6163,-242.5515C271.4505,-256.9555 173.1459,-280.4901 112.325,-295.0509"/>
<path fill="none" stroke="#87ceeb" stroke-width="2" d="M331.1506,-240.6065C270.9849,-255.0105 172.6802,-278.545 111.8593,-293.1058"/>
<path fill="none" stroke="#ee82ee" stroke-width="2" d="M330.685,-238.6615C270.5192,-253.0654 172.2146,-276.6 111.3937,-291.1608"/>
<polygon fill="#ee82ee" stroke="#ee82ee" stroke-width="2" points="110.9735,-289.7189 102.0632,-295.4511 112.6033,-296.5266 110.9735,-289.7189"/>
</g>
<!-- capabilities_old&#45;&gt;futures01 -->
<g id="edge8" class="edge">
<title>capabilities_old-&gt;futures01</title>
<path fill="none" stroke="#ee82ee" stroke-width="2" d="M311.5373,-231.7663C272.3438,-232.6804 224.4941,-233.7965 187.7682,-234.6531"/>
<path fill="none" stroke="#87ceeb" stroke-width="2" d="M311.4907,-229.7668C272.2972,-230.681 224.4475,-231.7971 187.7216,-232.6537"/>
<path fill="none" stroke="#ee82ee" stroke-width="2" d="M311.444,-227.7674C272.2505,-228.6815 224.4008,-229.7976 187.6749,-230.6542"/>
<polygon fill="#ee82ee" stroke="#ee82ee" stroke-width="2" points="187.59,-229.1557 177.6744,-232.888 187.7533,-236.1538 187.59,-229.1557"/>
</g>
<!-- capabilities_new&#45;&gt;library_new -->
<g id="edge3" class="edge">
<title>capabilities_new-&gt;library_new</title>
<path fill="none" stroke="#000000" d="M325.6311,-72.3495C266.6666,-60.3752 175.6613,-41.8942 116.4611,-29.8721"/>
<polygon fill="#000000" stroke="#000000" points="117.015,-26.4132 106.5184,-27.8529 115.6218,-33.2731 117.015,-26.4132"/>
</g>
<!-- capabilities_new&#45;&gt;futures03 -->
<g id="edge4" class="edge">
<title>capabilities_new-&gt;futures03</title>
<path fill="none" stroke="#000000" d="M307.7414,-85.8543C269.3755,-86.7491 223.5187,-87.8187 187.9936,-88.6473"/>
<polygon fill="#000000" stroke="#000000" points="187.7081,-85.1529 177.7924,-88.8853 187.8714,-92.151 187.7081,-85.1529"/>
</g>
<!-- library_old&#45;&gt;futures01 -->
<g id="edge10" class="edge">
<title>library_old-&gt;futures01</title>
<path fill="none" stroke="#ee82ee" stroke-width="2" d="M75.4292,-288.5708C84.45,-279.55 95.613,-268.387 105.4879,-258.5121"/>
<polygon fill="#ee82ee" stroke="#ee82ee" stroke-width="2" points="108.1351,-260.8147 112.7313,-251.2687 103.1853,-255.8649 108.1351,-260.8147"/>
</g>
<!-- library_new&#45;&gt;futures03 -->
<g id="edge6" class="edge">
<title>library_new-&gt;futures03</title>
<path fill="none" stroke="#000000" d="M75.4292,-35.4292C84.45,-44.45 95.613,-55.613 105.4879,-65.4879"/>
<polygon fill="#000000" stroke="#000000" points="103.1853,-68.1351 112.7313,-72.7313 108.1351,-63.1853 103.1853,-68.1351"/>
</g>
<!-- futures03&#45;&gt;futures_util -->
<g id="edge11" class="edge">
<title>futures03-&gt;futures_util</title>
<path fill="none" stroke="#000000" stroke-dasharray="5,2" d="M147.063,-107.063C156.0765,-116.0765 167.3041,-127.3041 177.2557,-137.2557"/>
<polygon fill="#000000" stroke="#000000" points="175.0133,-139.9631 184.5593,-144.5593 179.9631,-135.0133 175.0133,-139.9631"/>
</g>
<!-- futures_util&#45;&gt;futures01 -->
<g id="edge12" class="edge">
<title>futures_util-&gt;futures01</title>
<path fill="none" stroke="#000000" stroke-dasharray="5,2" d="M184.5708,-179.4292C175.55,-188.45 164.387,-199.613 154.5121,-209.4879"/>
<polygon fill="#000000" stroke="#000000" points="151.8649,-207.1853 147.2687,-216.7313 156.8147,-212.1351 151.8649,-207.1853"/>
</g>
<!-- server -->
<g id="node1" class="node">
<title>server</title>
<ellipse fill="#ffbbff" stroke="#000000" cx="311.4379" cy="-156.0887" rx="34.7476" ry="18"/>
<text text-anchor="middle" x="311.4379" y="-151.8887" font-family="Times,serif" font-size="14.00" fill="#000000">server</text>
</g>
<!-- capabilities_old -->
<g id="node2" class="node">
<title>capabilities_old</title>
<ellipse fill="#ffbbff" stroke="#000000" cx="383.4379" cy="-228.0887" rx="72.3671" ry="18"/>
<text text-anchor="middle" x="383.4379" y="-223.8887" font-family="Times,serif" font-size="14.00" fill="#000000">capabilities_old</text>
</g>
<!-- capabilities_new -->
<g id="node3" class="node">
<title>capabilities_new</title>
<ellipse fill="#ffffff" stroke="#000000" cx="383.4379" cy="-84.0887" rx="75.8586" ry="18"/>
<text text-anchor="middle" x="383.4379" y="-79.8887" font-family="Times,serif" font-size="14.00" fill="#000000">capabilities_new</text>
</g>
<!-- library_old -->
<g id="node4" class="node">
<title>library_old</title>
<ellipse fill="#ffbbff" stroke="#000000" cx="58" cy="-306" rx="53.8924" ry="18"/>
<text text-anchor="middle" x="58" y="-301.8" font-family="Times,serif" font-size="14.00" fill="#000000">library_old</text>
</g>
<!-- futures01 -->
<g id="node5" class="node">
<title>futures01</title>
<ellipse fill="#ffbbff" stroke="#000000" cx="130" cy="-234" rx="47.5119" ry="18"/>
<text text-anchor="middle" x="130" y="-229.8" font-family="Times,serif" font-size="14.00" fill="#000000">futures01</text>
</g>
<!-- library_new -->
<g id="node6" class="node">
<title>library_new</title>
<ellipse fill="#ffffff" stroke="#000000" cx="58" cy="-18" rx="57.8849" ry="18"/>
<text text-anchor="middle" x="58" y="-13.8" font-family="Times,serif" font-size="14.00" fill="#000000">library_new</text>
</g>
<!-- futures03 -->
<g id="node7" class="node">
<title>futures03</title>
<ellipse fill="#ffffff" stroke="#000000" cx="130" cy="-90" rx="47.5119" ry="18"/>
<text text-anchor="middle" x="130" y="-85.8" font-family="Times,serif" font-size="14.00" fill="#000000">futures03</text>
</g>
<!-- futures_util -->
<g id="node8" class="node">
<title>futures_util</title>
<ellipse fill="#b4cdcd" stroke="#000000" stroke-dasharray="5,2" cx="202" cy="-162" rx="55.614" ry="18"/>
<text text-anchor="middle" x="202" y="-157.8" font-family="Times,serif" font-size="14.00" fill="#000000">futures_util</text>
</g>
</g>
</svg>