<svg xmlns="http://www.w3.org/2000/svg" viewBox="0 0 820 440" font-family="'JetBrains Mono', 'Fira Code', 'SF Mono', monospace">
  <defs>
    <!-- Spawn arrowhead (matching w1/w2) -->
    <marker id="s3" markerWidth="8" markerHeight="6" refX="8" refY="3" orient="auto">
      <path d="M0,0 L8,3 L0,6" fill="none" stroke="#4ec9b0" stroke-width="1.5"/>
    </marker>
    <!-- PR arrowhead -->
    <marker id="pr3" markerWidth="8" markerHeight="6" refX="8" refY="3" orient="auto">
      <path d="M0,0 L8,3 L0,6" fill="none" stroke="#e06c9f" stroke-width="1.5"/>
    </marker>
  </defs>
  <rect width="820" height="440" rx="8" fill="#1a1b2e"/>
  <text x="24" y="32" fill="#888a9e" font-size="13" font-weight="600">3. Fold (partial) — PRs merge back up the tree</text>

  <!-- ===== SPAWN LINES (structural, subdued, with arrows) ===== -->

  <line x1="120" y1="181" x2="154" y2="181" stroke="#4ec9b0" stroke-width="2" opacity="0.4" marker-end="url(#s3)"/>

  <path d="M330,168 L370,168 L370,78 L408,78" fill="none" stroke="#4ec9b0" stroke-width="2" opacity="0.4" marker-end="url(#s3)"/>
  <line x1="330" y1="181" x2="408" y2="181" stroke="#4ec9b0" stroke-width="2" opacity="0.4" marker-end="url(#s3)"/>
  <path d="M330,194 L370,194 L370,286 L408,286" fill="none" stroke="#4ec9b0" stroke-width="2" opacity="0.4" marker-end="url(#s3)"/>

  <path d="M586,68 L620,68 L620,46 L648,46" fill="none" stroke="#4ec9b0" stroke-width="2" opacity="0.4" marker-end="url(#s3)"/>
  <path d="M586,88 L620,88 L620,112 L648,112" fill="none" stroke="#4ec9b0" stroke-width="2" opacity="0.4" marker-end="url(#s3)"/>

  <!-- ===== PR CURVES (route on tree exterior, no crossings) ===== -->

  <!-- PR: gc-trace → heap — arcs ABOVE the tree -->
  <path d="M656,34 C622,2 592,4 572,52" fill="none" stroke="#e06c9f" stroke-width="2" marker-end="url(#pr3)"/>
  <text x="618" y="12" fill="#e06c9f" font-size="9" font-weight="600">PR</text>

  <!-- PR: optimize → core-eval — arcs BELOW the tree -->
  <path d="M416,298 C392,360 348,358 328,210" fill="none" stroke="#e06c9f" stroke-width="2" marker-end="url(#pr3)"/>
  <text x="378" y="352" fill="#e06c9f" font-size="9" font-weight="600">PR</text>

  <!-- ===== NODES ===== -->

  <!-- main (waiting) -->
  <rect x="20" y="160" width="100" height="42" rx="6" fill="#2d3055" stroke="#4a4d7a" stroke-width="1"/>
  <text x="70" y="185" fill="#e8b931" font-size="11" font-weight="600" text-anchor="middle">main</text>

  <!-- core-eval (partial merge) -->
  <rect x="160" y="152" width="170" height="58" rx="6" fill="#1e3a5f" stroke="#2e7db3" stroke-width="1.5"/>
  <text x="245" y="176" fill="#5cb8e4" font-size="13" font-weight="700" text-anchor="middle">core-eval</text>
  <text x="245" y="194" fill="#e8b931" font-size="10" text-anchor="middle">1/3 merged</text>

  <!-- core-eval.heap (partial merge) -->
  <rect x="416" y="52" width="170" height="52" rx="6" fill="#1e3a5f" stroke="#2e7db3" stroke-width="1.5"/>
  <text x="501" y="75" fill="#5cb8e4" font-size="12" font-weight="700" text-anchor="middle">core-eval.heap</text>
  <text x="501" y="91" fill="#e8b931" font-size="10" text-anchor="middle">1/2 merged</text>

  <!-- core-eval.codegen (in progress) -->
  <rect x="416" y="157" width="170" height="48" rx="6" fill="#3a1e5f" stroke="#8b5fbf" stroke-width="1.5"/>
  <text x="501" y="178" fill="#c49bea" font-size="12" font-weight="700" text-anchor="middle">core-eval.codegen</text>
  <text x="501" y="194" fill="#888a9e" font-size="10" text-anchor="middle">in progress…</text>

  <!-- core-eval.optimize (done, faded) -->
  <rect x="416" y="262" width="170" height="48" rx="6" fill="#3a1e5f" stroke="#4ec9b0" stroke-width="1.5" opacity="0.5"/>
  <text x="501" y="283" fill="#c49bea" font-size="12" font-weight="700" text-anchor="middle" opacity="0.6">core-eval.optimize</text>
  <text x="501" y="299" fill="#4ec9b0" font-size="10" text-anchor="middle">done ✓</text>

  <!-- ...heap.gc-trace (done, faded) -->
  <rect x="656" y="22" width="140" height="48" rx="6" fill="#3a1e5f" stroke="#4ec9b0" stroke-width="1.5" opacity="0.5"/>
  <text x="726" y="43" fill="#c49bea" font-size="11" font-weight="700" text-anchor="middle" opacity="0.6">...heap.gc-trace</text>
  <text x="726" y="58" fill="#4ec9b0" font-size="10" text-anchor="middle">done ✓</text>

  <!-- ...heap.arena (in progress) -->
  <rect x="656" y="88" width="140" height="48" rx="6" fill="#3a1e5f" stroke="#8b5fbf" stroke-width="1.5"/>
  <text x="726" y="109" fill="#c49bea" font-size="11" font-weight="700" text-anchor="middle">...heap.arena</text>
  <text x="726" y="124" fill="#888a9e" font-size="10" text-anchor="middle">in progress…</text>

  <!-- ===== LEGEND ===== -->
  <rect x="24" y="382" width="772" height="44" rx="4" fill="#15162a"/>
  <rect x="44" y="396" width="20" height="12" rx="3" fill="#1e3a5f" stroke="#2e7db3" stroke-width="1"/>
  <text x="72" y="406" fill="#5cb8e4" font-size="10">Claude TL</text>
  <rect x="160" y="396" width="20" height="12" rx="3" fill="#3a1e5f" stroke="#8b5fbf" stroke-width="1"/>
  <text x="188" y="406" fill="#c49bea" font-size="10">Gemini Dev</text>
  <line x1="300" y1="402" x2="335" y2="402" stroke="#4ec9b0" stroke-width="2"/>
  <text x="343" y="406" fill="#888a9e" font-size="10">spawn branch</text>
  <path d="M480,402 Q497,392 515,402" fill="none" stroke="#e06c9f" stroke-width="2"/>
  <text x="523" y="406" fill="#888a9e" font-size="10">file PR</text>
</svg>
