<svg xmlns="http://www.w3.org/2000/svg" viewBox="0 0 720 250" font-family="'JetBrains Mono', 'Fira Code', 'SF Mono', monospace">
  <defs>
    <marker id="s1" markerWidth="8" markerHeight="6" refX="8" refY="3" orient="auto">
      <path d="M0,0 L8,3 L0,6" fill="none" stroke="#4ec9b0" stroke-width="1.5"/>
    </marker>
  </defs>
  <rect width="720" height="250" rx="8" fill="#1a1b2e"/>
  <text x="24" y="32" fill="#888a9e" font-size="13" font-weight="600">1. Initial State</text>

  <rect x="40" y="85" width="140" height="52" rx="6" fill="#2d3055" stroke="#4a4d7a" stroke-width="1"/>
  <text x="110" y="108" fill="#e8b931" font-size="14" font-weight="700" text-anchor="middle">main</text>
  <text x="110" y="125" fill="#888a9e" font-size="10" text-anchor="middle">root branch</text>

  <line x1="180" y1="111" x2="298" y2="111" stroke="#4ec9b0" stroke-width="2" marker-end="url(#s1)"/>

  <rect x="308" y="85" width="190" height="52" rx="6" fill="#1e3a5f" stroke="#2e7db3" stroke-width="1.5"/>
  <text x="403" y="108" fill="#5cb8e4" font-size="14" font-weight="700" text-anchor="middle">core-eval</text>
  <text x="403" y="125" fill="#888a9e" font-size="10" text-anchor="middle">Claude TL</text>

  <!-- Legend -->
  <rect x="40" y="190" width="640" height="44" rx="4" fill="#15162a"/>
  <rect x="60" y="204" width="20" height="12" rx="3" fill="#1e3a5f" stroke="#2e7db3" stroke-width="1"/>
  <text x="88" y="214" fill="#5cb8e4" font-size="10">Claude TL</text>
  <rect x="175" y="204" width="20" height="12" rx="3" fill="#3a1e5f" stroke="#8b5fbf" stroke-width="1"/>
  <text x="203" y="214" fill="#c49bea" font-size="10">Gemini Dev</text>
  <line x1="310" y1="210" x2="345" y2="210" stroke="#4ec9b0" stroke-width="2"/>
  <text x="353" y="214" fill="#888a9e" font-size="10">spawn branch</text>
  <line x1="480" y1="210" x2="515" y2="210" stroke="#e06c9f" stroke-width="2"/>
  <text x="523" y="214" fill="#888a9e" font-size="10">file PR</text>
</svg>
