<svg xmlns="http://www.w3.org/2000/svg" viewBox="0 0 820 400" font-family="'JetBrains Mono', 'Fira Code', 'SF Mono', monospace">
  <defs>
    <marker id="s4" markerWidth="8" markerHeight="6" refX="8" refY="3" orient="auto">
      <path d="M0,0 L8,3 L0,6" fill="none" stroke="#4ec9b0" stroke-width="1.5"/>
    </marker>
  </defs>
  <rect width="820" height="400" rx="8" fill="#1a1b2e"/>
  <text x="24" y="32" fill="#888a9e" font-size="13" font-weight="600">4. Next wave — TL merges wave 1, spawns followup tasks</text>

  <!-- ===== WAVE 1 SPAWN LINES (subdued) ===== -->
  <path d="M330,168 L370,168 L370,78 L408,78" fill="none" stroke="#4ec9b0" stroke-width="2" opacity="0.25"/>
  <line x1="330" y1="181" x2="408" y2="181" stroke="#4ec9b0" stroke-width="2" opacity="0.25"/>
  <path d="M330,194 L370,194 L370,256 L408,256" fill="none" stroke="#4ec9b0" stroke-width="2" opacity="0.25"/>

  <!-- ===== WAVE 1 STACKED CARDS ===== -->

  <!-- core-eval.heap stack (3 cards: scaffold + 2 impl PRs) -->
  <rect x="404" y="42" width="170" height="52" rx="6" fill="#1a2540" stroke="#2e7db3" stroke-width="1" opacity="0.25"/>
  <rect x="410" y="47" width="170" height="52" rx="6" fill="#1c2d4d" stroke="#2e7db3" stroke-width="1" opacity="0.3"/>
  <rect x="416" y="52" width="170" height="52" rx="6" fill="#1e3a5f" stroke="#2e7db3" stroke-width="1" opacity="0.4"/>
  <text x="501" y="75" fill="#5cb8e4" font-size="12" font-weight="700" text-anchor="middle" opacity="0.45">core-eval.heap</text>
  <text x="501" y="91" fill="#4ec9b0" font-size="10" text-anchor="middle" opacity="0.45">merged ✓</text>

  <!-- core-eval.codegen stack (2 cards) -->
  <rect x="410" y="151" width="170" height="48" rx="6" fill="#2d1545" stroke="#8b5fbf" stroke-width="1" opacity="0.25"/>
  <rect x="416" y="157" width="170" height="48" rx="6" fill="#3a1e5f" stroke="#8b5fbf" stroke-width="1" opacity="0.4"/>
  <text x="501" y="178" fill="#c49bea" font-size="12" font-weight="700" text-anchor="middle" opacity="0.45">core-eval.codegen</text>
  <text x="501" y="194" fill="#4ec9b0" font-size="10" text-anchor="middle" opacity="0.45">merged ✓</text>

  <!-- core-eval.optimize stack (2 cards) -->
  <rect x="410" y="226" width="170" height="48" rx="6" fill="#2d1545" stroke="#8b5fbf" stroke-width="1" opacity="0.25"/>
  <rect x="416" y="232" width="170" height="48" rx="6" fill="#3a1e5f" stroke="#8b5fbf" stroke-width="1" opacity="0.4"/>
  <text x="501" y="253" fill="#c49bea" font-size="12" font-weight="700" text-anchor="middle" opacity="0.45">core-eval.optimize</text>
  <text x="501" y="269" fill="#4ec9b0" font-size="10" text-anchor="middle" opacity="0.45">merged ✓</text>

  <!-- ===== STRUCTURAL ===== -->

  <line x1="120" y1="181" x2="154" y2="181" stroke="#4ec9b0" stroke-width="2" opacity="0.4" marker-end="url(#s4)"/>

  <rect x="20" y="160" width="100" height="42" rx="6" fill="#2d3055" stroke="#4a4d7a" stroke-width="1"/>
  <text x="70" y="185" fill="#e8b931" font-size="11" font-weight="600" text-anchor="middle">main</text>

  <rect x="160" y="152" width="170" height="58" rx="6" fill="#1e3a5f" stroke="#2e7db3" stroke-width="1.5"/>
  <text x="245" y="176" fill="#5cb8e4" font-size="13" font-weight="700" text-anchor="middle">core-eval</text>
  <text x="245" y="194" fill="#4ec9b0" font-size="10" text-anchor="middle">wave 1 merged ✓</text>

  <!-- ===== WAVE 2 (bright, new spawns) ===== -->

  <path d="M330,168 L390,168 L390,88 L440,88" fill="none" stroke="#4ec9b0" stroke-width="2" marker-end="url(#s4)"/>
  <path d="M330,194 L390,194 L390,260 L440,260" fill="none" stroke="#4ec9b0" stroke-width="2" marker-end="url(#s4)"/>

  <rect x="448" y="62" width="195" height="52" rx="6" fill="#3a1e5f" stroke="#8b5fbf" stroke-width="1.5"/>
  <text x="545" y="85" fill="#c49bea" font-size="12" font-weight="700" text-anchor="middle">...merge-full-eval</text>
  <text x="545" y="101" fill="#888a9e" font-size="10" text-anchor="middle">Gemini Dev — wave 2</text>

  <rect x="448" y="234" width="195" height="52" rx="6" fill="#1e3a5f" stroke="#2e7db3" stroke-width="1.5"/>
  <text x="545" y="257" fill="#5cb8e4" font-size="12" font-weight="700" text-anchor="middle">...partial-eval</text>
  <text x="545" y="273" fill="#888a9e" font-size="10" text-anchor="middle">Claude TL — wave 2</text>

  <!-- ===== LEGEND ===== -->
  <rect x="24" y="340" width="772" height="44" rx="4" fill="#15162a"/>
  <rect x="44" y="354" width="20" height="12" rx="3" fill="#1e3a5f" stroke="#2e7db3" stroke-width="1"/>
  <text x="72" y="364" fill="#5cb8e4" font-size="10">Claude TL</text>
  <rect x="160" y="354" width="20" height="12" rx="3" fill="#3a1e5f" stroke="#8b5fbf" stroke-width="1"/>
  <text x="188" y="364" fill="#c49bea" font-size="10">Gemini Dev</text>
  <line x1="300" y1="360" x2="335" y2="360" stroke="#4ec9b0" stroke-width="2"/>
  <text x="343" y="364" fill="#888a9e" font-size="10">spawn branch</text>
  <path d="M480,360 Q497,350 515,360" fill="none" stroke="#e06c9f" stroke-width="2"/>
  <text x="523" y="364" fill="#888a9e" font-size="10">file PR</text>
</svg>
